<?xml version="1.0" encoding="utf-8"?>
<!-- Generator: Adobe Illustrator 24.0.3, SVG Export Plug-In . SVG Version: 6.00 Build 0)  -->
<svg version="1.1" id="Capa_1" xmlns="http://www.w3.org/2000/svg" xmlns:xlink="http://www.w3.org/1999/xlink" x="0px" y="0px"
	 width="156.5px" height="73.4px" viewBox="0 0 156.5 73.4" style="enable-background:new 0 0 156.5 73.4;" xml:space="preserve">
<style type="text/css">
	.st0{fill-rule:evenodd;clip-rule:evenodd;fill:#E1251B;}
	.st1{fill-rule:evenodd;clip-rule:evenodd;fill:#FFFFFF;}
	.st2{fill:#3B4897;}
	.st3{fill:#E1251B;}
</style>
<g>
	<rect y="65.4" class="st0" width="152.3" height="8"/>
	<g>
		<polygon class="st1" points="129.1,66.5 127.8,72.5 130.8,72.5 131.2,69.2 132.5,72.5 134.3,72.5 135.6,69.2 136,72.5 139,72.5 
			137.5,66.5 134.6,66.5 133.4,69.6 132.3,66.5 		"/>
		<polygon class="st1" points="138.1,66.5 144.4,66.5 144.4,68.5 142.8,68.5 142.8,72.5 139.7,72.5 139.7,68.5 138.1,68.5 		"/>
		<path class="st1" d="M144.3,72c0.7,0.2,1.8,0.4,1.8,0.4c0.6,0.1,0.8,0.1,1.7,0.1c1,0,1.9-0.4,1.9-0.4c1-0.4,1.2-1.1,1.2-1.1
			c0.4-0.8-0.1-1.4-0.1-1.4c-0.3-0.5-1.3-0.7-1.3-0.7c-0.2-0.1-1.6-0.3-1.6-0.3c-0.4,0-0.3-0.3-0.3-0.3c0-0.3,0.9-0.2,0.9-0.2
			c0.4,0,1.4,0.4,1.4,0.4l0.8-1.6c-0.8-0.4-2.2-0.5-2.2-0.5c-1.2-0.1-2.3,0.3-2.3,0.3c-1.7,0.5-1.6,1.8-1.6,1.8
			c0,0.4,0.2,0.9,0.6,1.1c0.7,0.4,1.7,0.5,1.7,0.5c0.5,0,0.8,0.1,0.8,0.1c0.4,0.1,0.1,0.4,0.1,0.4c-0.2,0.1-0.6,0.1-0.6,0.1
			c-1,0.1-2.1-0.6-2.1-0.6L144.3,72z"/>
	</g>
	<path class="st2" d="M52.3,21c1.2-6.5,0.1-11.3-3.2-14.3c-3.4-3-9.9-4.5-19.5-4.5H29H11.4L0.6,61.6h15.5l4.2-23.1L29,59.7l0.8,1.9
		H48L36,37.9c4.5-0.9,8.1-2.8,10.9-5.7C49.7,29.3,51.5,25.5,52.3,21z M35.9,22.9c-0.5,2.6-1.6,4.5-3.5,5.7c-1,0.6-2.1,1.1-3.5,1.4
		c-1.3,0.3-2.7,0.4-4.4,0.4h-2.8l2.9-15.8h3.1c0.4,0,0.8,0,1.2,0c2.8,0.1,4.8,0.8,5.9,1.9C36.1,17.9,36.4,20,35.9,22.9z"/>
	<path class="st2" d="M84.2,28.4c-2.8-3.9-7.4-5.9-13.6-5.9c-0.9,0-1.8,0-2.7,0.1c-4.9,0.5-9.1,2.3-12.8,5.5
		c-4.3,3.8-7,8.7-8.1,14.8c-1.1,6.2-0.2,11.1,2.7,14.6c2.9,3.5,7.6,5.2,14.1,5.2c1.4,0,2.8-0.1,4.1-0.2c2.6-0.3,5-1,7-1.9
		c3-1.4,5.7-3.9,8.2-7.3l-9.4-4.1c-0.9,1.3-2,2.3-3.6,3.1c-0.7,0.4-1.5,0.7-2.2,0.9c-0.7,0.2-1.5,0.3-2.2,0.3c-2.3,0-4-0.8-5.2-2.2
		c-1.1-1.5-1.5-3.5-1-6.1h8.4h18.6l0.1-0.6C87.9,37.7,87.1,32.3,84.2,28.4z M74.9,37.8h-7h-7c0.4-2,1.4-3.7,2.9-5.1
		c1.2-1.1,2.6-1.8,4.1-2c0.4-0.1,0.8-0.1,1.2-0.1c2,0,3.5,0.6,4.5,1.9C74.6,33.8,75.1,35.6,74.9,37.8z"/>
	<path class="st2" d="M122.1,23.3l-1,5.2c-1.1-2.2-2.5-3.8-4.3-4.8c-1.7-0.9-3.7-1.5-6.2-1.5c-0.3,0-0.5,0-0.8,0
		c-5.4,0-10,1.8-13.9,5.5c-3.8,3.6-6.3,8.6-7.5,14.9c-1.1,6.1-0.4,11,2.1,14.7c2.5,3.7,6.3,5.6,11.4,5.6c3.2,0,5.9-0.5,8.1-1.5
		c0.2-0.1,0.4-0.2,0.5-0.3c2-1,3.8-2.6,5.5-4.6l-0.9,5.2h13.3l7-38.3H122.1z M118.6,42.5c-0.5,2.8-1.7,5.1-3.4,6.9
		c-1.3,1.3-2.9,2.2-4.6,2.5c-0.5,0.1-1,0.1-1.6,0.1c-2.5,0-4.4-0.8-5.5-2.5c-1.2-1.7-1.5-4-0.9-6.9c0.5-3,1.7-5.3,3.5-7
		c1.3-1.3,2.8-2.1,4.5-2.4c0.6-0.1,1.3-0.2,1.9-0.2c2.4,0,4.2,0.8,5.3,2.5C118.9,37.1,119.2,39.5,118.6,42.5z"/>
	<polygon class="st2" points="145.3,61.6 131.7,61.6 142.9,0 156.5,0 	"/>
	<g>
		<polygon class="st3" points="85.2,9.8 84.3,9.8 82.8,9.8 82.1,9.8 80.1,14.3 79.9,9.8 79.2,9.8 77.8,9.8 76.9,9.8 73.9,17.8 
			76.8,17.8 78.1,13.4 78.5,17.8 78.6,17.8 80.3,17.8 80.3,17.8 82.5,13.4 82,17.8 84.9,17.8 		"/>
		<polygon class="st3" points="62.3,9.8 61.7,12.5 59.9,12.5 60.4,9.8 57.6,9.8 55.9,17.8 58.8,17.8 59.4,15 61.2,15 60.6,17.8 
			63.5,17.8 65.1,9.8 		"/>
		<polygon class="st3" points="122.8,9.8 121.2,9.8 118.3,9.8 116.8,9.8 116.2,12.4 117.8,12.4 116.7,17.8 119.6,17.8 120.7,12.4 
			122.3,12.4 		"/>
		<polygon class="st3" points="92.2,12 92.6,9.8 90.1,9.8 89.5,9.8 87.2,9.8 85.6,17.8 87.9,17.8 88.5,17.8 91,17.8 91.5,15.6 
			88.9,15.6 89.1,14.8 91.4,14.8 91.8,12.7 89.5,12.7 89.7,12 		"/>
		<polygon class="st3" points="106,12 106.5,9.8 103.9,9.8 103.3,9.8 101.1,9.8 99.5,17.8 101.7,17.8 102.3,17.8 104.8,17.8 
			105.3,15.6 102.8,15.6 102.9,14.8 105.2,14.8 105.6,12.7 103.3,12.7 103.5,12 		"/>
		<polygon class="st3" points="128.7,12 129.2,9.8 126.7,9.8 126.1,9.8 123.8,9.8 122.2,17.8 124.4,17.8 125,17.8 127.6,17.8 
			128,15.6 125.5,15.6 125.7,14.8 127.9,14.8 128.3,12.7 126.1,12.7 126.2,12 		"/>
		<polygon class="st3" points="113,9.8 112.2,13.7 110.6,9.8 107.7,9.8 106.1,17.8 109,17.8 109.8,13.8 111.4,17.8 114.3,17.8 
			115.9,9.8 		"/>
		<path class="st3" d="M70.7,9.6c-2.4,0-4.7,1.9-5.2,4.2c-0.5,2.3,1.1,4.2,3.5,4.2c2.4,0,4.7-1.9,5.2-4.2
			C74.7,11.5,73.1,9.6,70.7,9.6z M69.6,15.4c-0.8,0-1.3-0.7-1.1-1.5c0.2-0.9,0.9-1.5,1.7-1.5c0.8,0,1.3,0.7,1.1,1.5
			C71.1,14.7,70.3,15.4,69.6,15.4z"/>
		<path class="st3" d="M97.8,15.3c-0.3,0.1-0.5,0.1-0.8,0.1c-0.8,0-1.4-0.7-1.2-1.6c0.2-0.9,1-1.6,1.8-1.6c0.3,0,0.6,0,0.8,0.1
			c0,0,0.4,0.1,0.9,0.6l0.6-2.9c-0.5-0.4-1.3-0.4-2.1-0.4c-2.2,0-4.4,1.9-4.9,4.2c-0.5,2.3,1,4.2,3.2,4.2c0.8,0,1.5,0,2.2-0.4l0.6-3
			C98.6,14.9,98.1,15.1,97.8,15.3z"/>
		<path class="st3" d="M134.8,14.5c0.4,0,1.5-0.5,1.8-1.5c0.3-1.1,0.3-1.7,0-2.2c-0.2-0.5-1-1-2-1c-0.3,0-0.9,0-1.4,0h-0.7h-2.2
			l-1.6,8h2.9l0.6-2.7l0.8,2.7h3.2L134.8,14.5z M133.2,13.4C133.2,13.4,133.2,13.4,133.2,13.4L133.2,13.4h-0.7l0.3-1.6h0.7v0
			c0,0,0,0,0,0c0.4,0,0.6,0.4,0.5,0.8C134,13.1,133.6,13.4,133.2,13.4z"/>
	</g>
</g>
</svg>
